<svg id="Layer_1" data-name="Layer 1" xmlns="http://www.w3.org/2000/svg" viewBox="0 0 347.89 88.03"><defs><style>.cls-1{fill:#fff;}</style></defs><title>logo</title><path class="cls-1" d="M810.32,558.86c0,2.54.1,10,.15,10.72a1.14,1.14,0,0,0,1.17,1.12h1.93c.2,0,.41.1.41.25v1.37c0,.2-.1.41-.3.41-.61,0-2.13-.15-6.5-.15s-6,.15-6.5.15c-.2,0-.3-.1-.3-.36V571a.27.27,0,0,1,.3-.3h1.83c.91,0,1.32-.41,1.37-1,.05-.41.15-9.65.15-15.95v-2.95c0-.91-.1-10.67-.1-11.12,0-.61-.3-1.22-1.52-1.22h-1.52c-.3,0-.41-.1-.41-.36v-1.37c0-.2.1-.3.41-.3.61,0,2.13.15,6.5.15,4,0,5.59-.15,6.3-.15.3,0,.41.1.41.36v1.27c0,.3-.1.41-.41.41h-1.63c-1,0-1.52.3-1.52,1.47,0,.81-.2,8.74-.2,11.17v2.23h.91a2.55,2.55,0,0,0,1.73-.71c1-.81,9.8-11.83,10.36-12.6.71-1,.1-1.63-.81-1.63h-.76c-.2,0-.25-.1-.25-.36v-1.22c0-.3.1-.41.3-.41.61,0,2.64.15,6,.15,2,0,3.76-.15,4.37-.15.3,0,.41.1.41.36v1.27a.37.37,0,0,1-.41.41h-1a5.45,5.45,0,0,0-2.84.86c-2.39,1.57-9.55,9.85-11.48,12.39,2,2.54,12.39,15.95,13.92,17.73a3.74,3.74,0,0,0,3,1.22h1.12a.36.36,0,0,1,.41.36v1.27c0,.3-.1.41-.41.41-.51,0-2.34-.15-7-.15-4.27,0-6.2.15-6.91.15-.2,0-.3-.1-.3-.41V571a.27.27,0,0,1,.3-.3h.71a.9.9,0,0,0,.81-1.32c-.51-1-8.74-12.8-9.55-13.61a2.38,2.38,0,0,0-1.73-.71h-.91Z" transform="translate(-799.45 -536.46)"/><path class="cls-1" d="M840.6,559.52c0-2.34-.41-3.15-1.93-4l-.91-.51c-.3-.1-.41-.2-.41-.41v-.3c0-.2.1-.3.41-.46L843.9,551a2.39,2.39,0,0,1,.81-.2c.3,0,.41.3.46.61l.46,3.66h.2c1.73-2.84,3.86-4.57,6.09-4.57a2.48,2.48,0,0,1,2.64,2.54,3,3,0,0,1-2.74,2.74,3.93,3.93,0,0,1-1.73-.41,2.33,2.33,0,0,0-1.42-.41,2.65,2.65,0,0,0-2.13,1.47,5.78,5.78,0,0,0-.61,2.49v9.8c0,1.63.41,2.13,1.42,2.13h2.23c.3,0,.41.1.41.36v1.17c0,.25-.1.36-.36.36s-2.59-.15-6.3-.15c-3.56,0-5.54.15-5.94.15-.25,0-.36-.1-.36-.36v-1.12c0-.3.1-.41.46-.41h1.78a1.2,1.2,0,0,0,1.32-1.37Z" transform="translate(-799.45 -536.46)"/><path class="cls-1" d="M859.39,558.1c0-1.52-.3-2.54-2.64-3.15-.46-.1-.51-.25-.51-.46v-.56c0-.2.1-.3.36-.41.71-.3,5.74-2.08,6.6-2.44a3.52,3.52,0,0,1,1.22-.3c.3,0,.46.2.41.61-.1.81-.1,4.06-.1,8.28v5.49c0,1.93,0,3.76.1,4.37.1.91.3,1.32.81,1.32h2c.41,0,.51.1.51.36v1c0,.3-.1.51-.41.51s-2.74-.15-6.15-.15c-2.95,0-4.88.15-5.49.15-.25,0-.41-.1-.41-.51v-1c0-.3.2-.41.51-.41h2.23c.51,0,.76-.2.81-1,.05-1.52.1-3.15.1-4.57Zm1.73-12.54a3,3,0,0,1-3.1-2.84,3.13,3.13,0,0,1,3.4-2.84,2.78,2.78,0,0,1,3,2.64A3,3,0,0,1,861.12,545.55Z" transform="translate(-799.45 -536.46)"/><path class="cls-1" d="M870.9,572.57c-.51,0-.71-.3-.2-1.12L883,553h-4.47c-2.95,0-3.86.41-7.92,5.59a.37.37,0,0,1-.51.15l-.71-.41c-.2-.15-.2-.25-.1-.56l3-7.21a25.93,25.93,0,0,0,2.74.51,48.76,48.76,0,0,0,6.91.3h7.42c.51,0,.81.41.51.81l-12.7,18.64H883c1.32,0,3.76-.91,7.42-5.43.2-.25.36-.25.56-.15l.66.51a.35.35,0,0,1,.1.51l-3.66,6.91a26.7,26.7,0,0,0-5.28-.51c-2.34-.1-4.67-.1-5.38-.1Z" transform="translate(-799.45 -536.46)"/><path class="cls-1" d="M904.85,570.08a9.84,9.84,0,0,1-4.42,2.74,10.63,10.63,0,0,1-3.25.36c-1.88,0-3.5-1.52-3.5-4.37,0-2.34,1-4.62,4.67-6.25a53.29,53.29,0,0,0,6.2-3.15v-2.64a5,5,0,0,0-.81-2.84,3.39,3.39,0,0,0-2.54-.76,5.29,5.29,0,0,0-2.95.91c-.71.51-.2,1.27-.2,2.49,0,1.83-.91,2.95-3,2.95a1.65,1.65,0,0,1-1.73-1.73,5.39,5.39,0,0,1,2.34-4.16,13.39,13.39,0,0,1,8.23-2.84c2.84,0,3.76.61,4.67,1.42a4.77,4.77,0,0,1,1.22,3.81l.1,8v2.44c0,2.74.41,3.56,1.32,3.56a2,2,0,0,0,1.63-.81c.2-.3.3-.3.51-.2l.61.41c.2.1.3.3.1.81a5.1,5.1,0,0,1-4.67,2.95,4.19,4.19,0,0,1-4.27-3.1Zm-.3-8.79c-2.24,1.42-5.59,2.29-5.59,6,0,2.08,1.12,3.1,2.34,3.1,1.42-.1,3.25-1.52,3.25-2.44Z" transform="translate(-799.45 -536.46)"/><path class="cls-1" d="M931.81,550.43c0-1.83-.1-8-.15-8.89-.15-2.95-1-3-2.9-3h-1.63c-.3,0-.41-.1-.41-.41v-1.17c0-.3.1-.46.41-.46.71,0,3.15.2,7.42.15,1.63,0,4.67-.15,7.42-.15,3.86,0,7.11.36,8.94,1.37,2.84,1.52,3.86,3.86,3.86,6.91,0,4.06-2.13,6.5-6.91,8.28v.25c5.79,1.52,9.14,4.57,9.14,10,0,2.74-1.52,6.4-4,7.72-2.13,1.22-5.38,1.78-11.07,1.78-2,0-5.38-.15-7.42-.15-4,0-6.09.15-7.16.15a.36.36,0,0,1-.36-.41V571a.32.32,0,0,1,.36-.36h2.18c1.52,0,1.88-.61,2-2.18.1-1.22.2-7.92.2-12.09Zm6.2,2.13c.81.05,1.52.05,2.34.05a9,9,0,0,0,5.38-1.47,7.35,7.35,0,0,0,2.64-6,6.31,6.31,0,0,0-2.24-5.18,10.58,10.58,0,0,0-5.79-1.78,7.18,7.18,0,0,0-1.52.1,1,1,0,0,0-.66.81c-.05,1-.15,5.33-.15,9.6Zm0,11.78c0,4.77,1.12,6.75,4.37,6.75,4,0,7.62-1.88,7.62-8.08,0-4.16-2-6.81-4.88-7.92a15,15,0,0,0-5.79-.91H938v10.16Z" transform="translate(-799.45 -536.46)"/><path class="cls-1" d="M980.1,553.78a11,11,0,0,1,3.5,8,11.65,11.65,0,0,1-3.15,7.72,11.26,11.26,0,0,1-8.53,3.66,9.93,9.93,0,0,1-8.23-3.66,10.67,10.67,0,0,1-2.74-7.87,11.34,11.34,0,0,1,4.27-8.43,11,11,0,0,1,7.21-2.44A10.74,10.74,0,0,1,980.1,553.78Zm-2.69,7.87c0-5.59-2.95-8.84-5.28-8.84a4,4,0,0,0-3.2,1.37c-1.57,1.78-2.18,3.91-2.18,7.62,0,2.95.2,4.88,1.57,7.06a4.26,4.26,0,0,0,4,2.18C975.69,571,977.41,566.83,977.41,561.65Z" transform="translate(-799.45 -536.46)"/><path class="cls-1" d="M988.77,559.52c0-2.34-.41-3.15-1.93-4l-.91-.51c-.3-.1-.41-.2-.41-.41v-.3c0-.2.1-.3.41-.46l6.15-2.89a2.39,2.39,0,0,1,.81-.2c.3,0,.41.3.46.61l.46,3.66h.2c1.73-2.84,3.86-4.57,6.09-4.57a2.48,2.48,0,0,1,2.64,2.54,3,3,0,0,1-2.74,2.74,3.93,3.93,0,0,1-1.73-.41,2.33,2.33,0,0,0-1.42-.41,2.65,2.65,0,0,0-2.13,1.47,5.78,5.78,0,0,0-.61,2.49v9.8c0,1.63.41,2.13,1.42,2.13h2.23c.3,0,.41.1.41.36v1.17c0,.25-.1.36-.36.36s-2.59-.15-6.3-.15c-3.56,0-5.54.15-5.94.15-.25,0-.36-.1-.36-.36v-1.12c0-.3.1-.41.46-.41h1.78a1.2,1.2,0,0,0,1.32-1.37Z" transform="translate(-799.45 -536.46)"/><path class="cls-1" d="M1007.64,559.52c0-2.34-.41-3.15-1.93-4l-.91-.51c-.3-.1-.41-.2-.41-.41v-.3c0-.2.1-.3.41-.46l6.15-2.89a2.39,2.39,0,0,1,.81-.2c.3,0,.41.3.46.61l.46,3.66h.2c1.73-2.84,3.86-4.57,6.1-4.57a2.48,2.48,0,0,1,2.64,2.54,3,3,0,0,1-2.74,2.74,3.93,3.93,0,0,1-1.73-.41,2.33,2.33,0,0,0-1.42-.41,2.65,2.65,0,0,0-2.13,1.47,5.78,5.78,0,0,0-.61,2.49v9.8c0,1.63.41,2.13,1.42,2.13h2.23c.3,0,.41.1.41.36v1.17c0,.25-.1.36-.36.36s-2.59-.15-6.3-.15c-3.56,0-5.54.15-5.94.15-.25,0-.36-.1-.36-.36v-1.12c0-.3.1-.41.46-.41h1.78a1.2,1.2,0,0,0,1.32-1.37Z" transform="translate(-799.45 -536.46)"/><path class="cls-1" d="M1041.09,553.78a11,11,0,0,1,3.51,8,11.65,11.65,0,0,1-3.15,7.72,11.26,11.26,0,0,1-8.53,3.66,9.93,9.93,0,0,1-8.23-3.66,10.66,10.66,0,0,1-2.74-7.87,11.34,11.34,0,0,1,4.27-8.43,11,11,0,0,1,7.21-2.44A10.74,10.74,0,0,1,1041.09,553.78Zm-2.69,7.87c0-5.59-2.95-8.84-5.28-8.84a4,4,0,0,0-3.2,1.37c-1.57,1.78-2.18,3.91-2.18,7.62,0,2.95.2,4.88,1.57,7.06a4.26,4.26,0,0,0,4,2.18C1036.67,571,1038.4,566.83,1038.4,561.65Z" transform="translate(-799.45 -536.46)"/><path class="cls-1" d="M1052.69,551.09a2.27,2.27,0,0,1,1-.3c.3,0,.56.2.61.71l.3,2.95h.2a9.69,9.69,0,0,1,7.31-3.66,6.35,6.35,0,0,1,6,3.76h.3a9.24,9.24,0,0,1,7.11-3.76c2,0,3.35.3,4.67,1.73s2.34,2.13,2.34,6.55v5.79c0,1.42-.1,3.86-.1,4.47,0,1.12.61,1.52,1.32,1.52h1.32c.3,0,.41.1.41.36v1.07c0,.3-.1.46-.41.46s-1.73-.15-4.88-.15c-2.84,0-4.67.15-5,.15s-.41-.15-.41-.41v-1.07c0-.3.1-.41.41-.41h.81a1,1,0,0,0,1-1c.1-1.12.2-2.95.2-4.47v-5.94c0-2.44-.2-3.76-1.12-4.57a3.91,3.91,0,0,0-3-1.12,5,5,0,0,0-3.61,2.08,6.88,6.88,0,0,0-.76,4v9.45c0,1.12.3,1.63.91,1.63H1071c.41,0,.51.1.51.36v1.12c0,.25-.05.41-.3.41-.41,0-1.73-.15-5-.15s-4.83.15-5.13.15-.36-.15-.36-.41v-1c0-.41.1-.51.41-.51h1.12c.71,0,1.22-.51,1.22-2.34v-8.69c0-3.66-.61-4.77-1.32-5.38a4.6,4.6,0,0,0-2.74-.71,4.44,4.44,0,0,0-3.66,2.13,5.87,5.87,0,0,0-.81,3.61v9c0,1.83.41,2.34,1,2.34h1.12c.41,0,.51.1.51.3v1.17c0,.25-.1.41-.41.41s-1.83-.15-5.08-.15c-3,0-4.67.15-5.08.15s-.41-.1-.41-.46V571.2c0-.25.2-.36.61-.36h1.52c.51,0,.81-.41.91-1.32V559c0-1.62-.3-2.54-1.52-3.25l-1.07-.56c-.25-.15-.36-.25-.36-.46v-.51c0-.2.15-.3.36-.41Z" transform="translate(-799.45 -536.46)"/><path class="cls-1" d="M1092.39,561.3c0,5.18,3.71,8.23,6.6,8.23a6.89,6.89,0,0,0,6.15-2.95c.2-.36.41-.36.61-.25l.76.46c.25.15.36.36,0,1a10.06,10.06,0,0,1-9.24,5.38c-3.25,0-5.54-.71-7.31-2.74-2.34-2.69-2.84-5.23-2.84-8.38a10.5,10.5,0,0,1,2.49-7.52c2.13-2.74,4.42-3.76,8.84-3.76,5.79,0,7.67,6,7.67,8.13,0,.76-.51.81-1.42.81h-12.29Zm6.3-3.4c1.07,0,1.68-.3,1.68-.71,0-1.52-.51-4.52-3.15-4.52-2.49,0-4,1.83-4.67,5.23Z" transform="translate(-799.45 -536.46)"/><path class="cls-1" d="M1127.89,553.78a11,11,0,0,1,3.5,8,11.65,11.65,0,0,1-3.15,7.72,11.26,11.26,0,0,1-8.53,3.66,9.93,9.93,0,0,1-8.23-3.66,10.67,10.67,0,0,1-2.74-7.87,11.34,11.34,0,0,1,4.27-8.43,11,11,0,0,1,7.21-2.44A10.74,10.74,0,0,1,1127.89,553.78Zm-2.69,7.87c0-5.59-2.95-8.84-5.28-8.84a4,4,0,0,0-3.2,1.37c-1.57,1.78-2.18,3.91-2.18,7.62,0,2.95.2,4.88,1.57,7.06a4.26,4.26,0,0,0,4,2.18C1123.48,571,1125.2,566.83,1125.2,561.65Z" transform="translate(-799.45 -536.46)"/><path class="cls-1" d="M843.74,617.63c.1,0,.1.2,0,.41a11.44,11.44,0,0,1-10.16,6.45c-5.59,0-8.33-4-10.77-7-2.24,2.44-5.59,7-12.09,7-6.1,0-11.28-4.11-11.28-8.89a11.43,11.43,0,0,1,4.27-8.53,23.54,23.54,0,0,1,5.49-3.86c-3.45-2.23-5.18-4.57-5.18-6.81,0-4,5.08-8.63,9-8.63,4.88,0,8.23,3.66,8.13,7-.1,2.84-3.45,5.79-5.89,6.91,3.76,1.73,7.72,5.79,10.36,9.55,1.63-2,3.66-5.89,3.76-7.72A1.39,1.39,0,0,0,827.9,602h-.81c-.2,0-.3-.1-.3-.41v-1.12c0-.25.1-.36.3-.36.51,0,3.25.15,5.49.15,1.83,0,4.88-.15,5.18-.15s.41.1.41.41v1.07c0,.25-.1.41-.41.41h-.81c-2,0-2.74.2-3.45,1.32-.41.61-4.37,6.91-6.5,9.65.71.71,2.84,3.35,4.06,4.47.91,1,3.15,3.35,6,3.35,3.15,0,5.08-3.15,5.38-3.66.2-.2.3-.2.41-.1Zm-31.08,3.1c4.77,0,7.42-3.1,9-4.82-2.44-3.66-6.81-9-11.07-11.48a11.16,11.16,0,0,0-5.28,9.35C805.45,617.93,809.61,620.73,812.66,620.73Zm.41-30.93c-2.54,0-4,2.74-4,5.49,0,2,2.54,4.16,4.67,5.38a6.91,6.91,0,0,0,2.84-6C816.62,592.64,815.3,589.8,813.07,589.8Z" transform="translate(-799.45 -536.46)"/><path class="cls-1" d="M891.48,605.34c0-1.52,0-14.12-.1-14.32h-.2c-.41.71-6.81,15.54-7.41,16.86-.76,1.63-5.94,13.61-6.2,14.12s-.61,1.12-1.12,1.12c-.3,0-.61-.3-.81-.91-.2-.3-6.81-16.15-7.11-17-.91-2.34-5.59-13.71-6.2-14.32-.2.71-.25,13.51-.25,14.12s-.05,9.24.25,12.55c.2,2.34.81,4.27,2.44,4.27H867a.36.36,0,0,1,.41.36v1.27c0,.2-.1.41-.51.41s-1.93-.15-5.79-.15c-4.37,0-6.09.15-6.6.15s-.41-.1-.41-.46v-1.27c0-.1,0-.3.3-.3h2.34c1.73,0,2.29-1.83,2.54-3.61.46-3.56.76-16,.76-17v-8.69c0-1.83-.25-2.95-2.49-2.95h-2.23a.36.36,0,0,1-.41-.36v-1.37c0-.1.1-.3.41-.3.51,0,1.83.15,7.21.15,2.44,0,3.86-.15,4.47-.15a1.14,1.14,0,0,1,1.22.86c1.83,4.77,8.94,21.64,10.46,25.8.46-.91,4.06-9.29,5.38-12.29.91-2.13,5.49-12.6,5.74-13.61.15-.51.76-.61,2-.61,7.42.05,9.14-.15,9.75-.15.2,0,.3.2.3.46v1.07c0,.3-.1.51-.41.51H899.2c-1.32,0-1.42.91-1.47,2s-.05,11.28-.05,12.6v3.56c0,3,.1,10.46.1,11.33.05,1.93.51,2.74,1.42,2.74h2.74c.3,0,.3.2.3.36v1.17c0,.3,0,.51-.41.51-.61,0-3-.15-7.52-.15-5,0-6.91.15-7.62.15-.3,0-.41-.2-.41-.46v-1.17c0-.3.1-.41.41-.41h3.15c.91,0,1.32-.3,1.47-1.78.05-.51.15-7.82.15-11.88Z" transform="translate(-799.45 -536.46)"/><path class="cls-1" d="M917,621.23a9.83,9.83,0,0,1-4.42,2.74,10.61,10.61,0,0,1-3.25.36c-1.88,0-3.5-1.52-3.5-4.37,0-2.34,1-4.62,4.67-6.25a53.39,53.39,0,0,0,6.2-3.15v-2.64a5,5,0,0,0-.81-2.84,3.39,3.39,0,0,0-2.54-.76,5.29,5.29,0,0,0-2.95.91c-.71.51-.2,1.27-.2,2.49,0,1.83-.91,2.95-3,2.95a1.65,1.65,0,0,1-1.73-1.73,5.39,5.39,0,0,1,2.34-4.16,13.39,13.39,0,0,1,8.23-2.84c2.84,0,3.76.61,4.67,1.42a4.77,4.77,0,0,1,1.22,3.81l.1,8v2.44c0,2.74.41,3.56,1.32,3.56a2,2,0,0,0,1.63-.81c.2-.3.3-.3.51-.2l.61.41c.2.1.3.3.1.81a5.1,5.1,0,0,1-4.67,2.95,4.19,4.19,0,0,1-4.27-3.1Zm-.3-8.79c-2.24,1.42-5.59,2.29-5.59,6,0,2.08,1.12,3.1,2.34,3.1,1.42-.1,3.25-1.52,3.25-2.44Z" transform="translate(-799.45 -536.46)"/><path class="cls-1" d="M926.54,605.34a.64.64,0,0,1-.71-.71c0-.41.3-.71,1-1,1.42-.51,5.84-4.27,7-6.4a.84.84,0,0,1,.81-.51c.41,0,.61.3.61.71l-.2,5h6.7c.3,0,.41.2.36.41l-.51,2.13c-.05.2-.2.3-.51.3h-6.15c-.1,2.13-.15,4.57-.15,6.81v4.57c0,4,1.68,4.77,2.69,4.77a7,7,0,0,0,2.95-.61c.36-.15.51-.15.61.1l.3.61a.63.63,0,0,1-.2.71,10.56,10.56,0,0,1-6.4,2c-3,0-5.33-2.44-5.33-4.57,0-1.83.15-5.89.15-7.82v-6.6Z" transform="translate(-799.45 -536.46)"/><path class="cls-1" d="M944.18,605.34a.64.64,0,0,1-.71-.71c0-.41.3-.71,1-1,1.42-.51,5.84-4.27,7-6.4a.84.84,0,0,1,.81-.51c.41,0,.61.3.61.71l-.2,5h6.7c.3,0,.41.2.36.41l-.51,2.13c-.05.2-.2.3-.51.3h-6.15c-.1,2.13-.15,4.57-.15,6.81v4.57c0,4,1.68,4.77,2.69,4.77a7,7,0,0,0,2.95-.61c.36-.15.51-.15.61.1l.3.61a.63.63,0,0,1-.2.71,10.56,10.56,0,0,1-6.4,2c-3,0-5.33-2.44-5.33-4.57,0-1.83.15-5.89.15-7.82v-6.6Z" transform="translate(-799.45 -536.46)"/><path class="cls-1" d="M978.55,612.6c0-2.64,0-5.49-1.32-6.81a3.69,3.69,0,0,0-2.84-1.22,5.51,5.51,0,0,0-3.76,1.83,4.42,4.42,0,0,0-.91,2.49v11c0,1.62.2,2.13.91,2.13h1.22c.3,0,.51.1.51.46v.91c0,.3-.1.51-.41.51s-2.64-.15-5.28-.15c-3.15,0-5.08.15-5.49.15-.25,0-.41-.1-.41-.41v-1.12c0-.25.2-.36.46-.36h1.27c.81,0,1.52-.2,1.68-.81a50.5,50.5,0,0,0,.25-6.3l-.1-18.13c0-2.84-.61-3.86-2.34-4.57l-.91-.3c-.3-.1-.41-.2-.41-.41V591c0-.2.1-.3.71-.61a52.86,52.86,0,0,0,6.6-2.95,4.36,4.36,0,0,1,1.42-.41c.41,0,.51.41.41,1.22s-.1,11.17-.1,13.66V605h.3a8.36,8.36,0,0,1,6.55-3.1,7,7,0,0,1,5.08,2c2.34,2,2.23,4.57,2.23,7.47v9.75c0,.71.91.81,1.73.81h.91c.41,0,.51.1.51.36v1.12c0,.25-.1.41-.41.41s-1.93-.15-5-.15-4.88.15-5.38.15c-.3,0-.41-.1-.41-.36V622.3c0-.2.1-.3.36-.3H977c.61,0,1.32-.2,1.42-1s.1-3.35.1-5Z" transform="translate(-799.45 -536.46)"/><path class="cls-1" d="M993.74,612.45c0,5.18,3.71,8.23,6.6,8.23a6.89,6.89,0,0,0,6.15-2.95c.2-.36.41-.36.61-.25l.76.46c.25.15.36.36,0,1a10.07,10.07,0,0,1-9.24,5.38c-3.25,0-5.54-.71-7.31-2.74-2.34-2.69-2.84-5.23-2.84-8.38a10.5,10.5,0,0,1,2.49-7.52c2.13-2.74,4.42-3.76,8.84-3.76,5.79,0,7.67,6,7.67,8.13,0,.76-.51.81-1.42.81H993.74Zm6.3-3.4c1.07,0,1.68-.3,1.68-.71,0-1.52-.51-4.52-3.15-4.52-2.49,0-4,1.83-4.67,5.23Z" transform="translate(-799.45 -536.46)"/><path class="cls-1" d="M1018.08,623.42l-7-17.83a1.9,1.9,0,0,0-1.93-1.32h-.86a.32.32,0,0,1-.36-.36V602.8c0-.3.1-.41.41-.41.61,0,1.63.15,5.28.15,2.44,0,3.66-.15,4.37-.15.3,0,.41.1.41.41v1.12c0,.25-.1.36-.41.36h-.51c-.51,0-.76.41-.51,1.17l3.66,11.88h.3l4-10a2.48,2.48,0,0,0-.41-2.29,1.56,1.56,0,0,0-1.32-.51h-.56c-.25,0-.36-.1-.36-.36V603.1c0-.3.15-.41.46-.41s2,.15,5.23.15c2.34,0,3.45-.15,3.86-.15s.51.1.51.41v1.07c0,.25-.1.41-.41.41h-.81a.83.83,0,0,0-.71,1.17l3.76,11h.2l3.35-9.19c.81-2.23.2-3.25-1-3.25H1036c-.2,0-.3-.15-.3-.36V602.8c0-.3.15-.41.41-.41s1.83.15,4.27.15c2.23,0,3.15-.15,3.66-.15.3,0,.41.15.41.36v1.12c0,.25-.1.41-.36.41h-.76a2.2,2.2,0,0,0-1.93.86c-.51.91-7,17-7.77,18.69a1,1,0,0,1-1.07.66c-.51,0-.71-.3-1-1.07l-5.08-13.71h-.3l-5.89,13.92a1.25,1.25,0,0,1-1.22.86C1018.63,624.49,1018.33,624.08,1018.08,623.42Z" transform="translate(-799.45 -536.46)"/><path class="cls-1" d="M1067.24,610c0,2.54.1,10,.15,10.72a1.14,1.14,0,0,0,1.17,1.12h1.93c.2,0,.41.1.41.25v1.37c0,.2-.1.41-.3.41-.61,0-2.13-.15-6.5-.15s-6,.15-6.5.15c-.2,0-.3-.1-.3-.36v-1.37a.27.27,0,0,1,.3-.3h1.83c.91,0,1.32-.41,1.37-1,.05-.41.15-9.65.15-15.95V602c0-.91-.1-10.67-.1-11.12,0-.61-.3-1.22-1.52-1.22h-1.52c-.3,0-.41-.1-.41-.36v-1.37c0-.2.1-.3.41-.3.61,0,2.13.15,6.5.15,4,0,5.59-.15,6.3-.15.3,0,.41.1.41.36v1.27c0,.3-.1.41-.41.41H1069c-1,0-1.52.3-1.52,1.47,0,.81-.2,8.74-.2,11.17v2.24h.91a2.55,2.55,0,0,0,1.73-.71c1-.81,9.8-11.83,10.36-12.6.71-1,.1-1.63-.81-1.63h-.76c-.2,0-.25-.1-.25-.36V588c0-.3.1-.41.3-.41.61,0,2.64.15,6,.15,2,0,3.76-.15,4.37-.15.3,0,.41.1.41.36v1.27a.37.37,0,0,1-.41.41h-1a5.45,5.45,0,0,0-2.84.86c-2.39,1.57-9.55,9.85-11.48,12.39,2,2.54,12.39,15.95,13.92,17.73a3.74,3.74,0,0,0,3,1.22h1.12a.36.36,0,0,1,.41.36v1.27c0,.3-.1.41-.41.41-.51,0-2.34-.15-7-.15-4.27,0-6.2.15-6.91.15-.2,0-.3-.1-.3-.41V622.2a.27.27,0,0,1,.3-.3h.71a.9.9,0,0,0,.81-1.32c-.51-1-8.74-12.8-9.55-13.61a2.38,2.38,0,0,0-1.73-.71h-.91Z" transform="translate(-799.45 -536.46)"/><path class="cls-1" d="M1097.52,609.25c0-1.52-.3-2.54-2.64-3.15-.46-.1-.51-.25-.51-.46v-.56c0-.2.1-.3.36-.41.71-.3,5.74-2.08,6.6-2.44a3.52,3.52,0,0,1,1.22-.3c.3,0,.46.2.41.61-.1.81-.1,4.06-.1,8.28v5.49c0,1.93,0,3.76.1,4.37.1.91.3,1.32.81,1.32h2c.41,0,.51.1.51.36v1c0,.3-.1.51-.41.51s-2.74-.15-6.15-.15c-2.95,0-4.88.15-5.49.15-.25,0-.41-.1-.41-.51v-1c0-.3.2-.41.51-.41h2.23c.51,0,.76-.2.81-1,.05-1.52.1-3.15.1-4.57Zm1.73-12.55a3,3,0,0,1-3.1-2.84,3.13,3.13,0,0,1,3.4-2.84,2.78,2.78,0,0,1,3,2.64A3,3,0,0,1,1099.25,596.7Z" transform="translate(-799.45 -536.46)"/><path class="cls-1" d="M1114.53,602.24a2.27,2.27,0,0,1,1-.3c.3,0,.56.2.61.71l.3,2.95h.2a9.69,9.69,0,0,1,7.31-3.66,6.35,6.35,0,0,1,6,3.76h.3a9.24,9.24,0,0,1,7.11-3.76c2,0,3.35.3,4.67,1.73s2.34,2.13,2.34,6.55V616c0,1.42-.1,3.86-.1,4.47,0,1.12.61,1.52,1.32,1.52h1.32c.3,0,.41.1.41.36v1.07c0,.3-.1.46-.41.46s-1.73-.15-4.88-.15c-2.84,0-4.67.15-5,.15s-.41-.15-.41-.41V622.4c0-.3.1-.41.41-.41h.81a1,1,0,0,0,1-1c.1-1.12.2-2.95.2-4.47v-5.94c0-2.44-.2-3.76-1.12-4.57a3.91,3.91,0,0,0-3-1.12,5,5,0,0,0-3.61,2.08,6.88,6.88,0,0,0-.76,4v9.45c0,1.12.3,1.63.91,1.63h1.32c.41,0,.51.1.51.36v1.12c0,.25-.05.41-.3.41-.41,0-1.73-.15-5-.15s-4.82.15-5.13.15-.36-.15-.36-.41v-1c0-.41.1-.51.41-.51h1.12c.71,0,1.22-.51,1.22-2.34V611c0-3.66-.61-4.77-1.32-5.38a4.6,4.6,0,0,0-2.74-.71,4.44,4.44,0,0,0-3.66,2.13,5.87,5.87,0,0,0-.81,3.61v9c0,1.83.41,2.34,1,2.34h1.12c.41,0,.51.1.51.3v1.17c0,.25-.1.41-.41.41s-1.83-.15-5.08-.15c-3,0-4.67.15-5.08.15s-.41-.1-.41-.46v-1.07c0-.25.2-.36.61-.36h1.52c.51,0,.81-.41.91-1.32V610.16c0-1.62-.3-2.54-1.52-3.25l-1.07-.56c-.25-.15-.36-.25-.36-.46v-.51c0-.2.15-.3.36-.41Z" transform="translate(-799.45 -536.46)"/></svg>